<svg width="193" height="64" viewBox="0 0 193 64" fill="none" xmlns="http://www.w3.org/2000/svg">
<rect width="192" height="64" fill="#13161E"/>
<path d="M60.9424 61.424V14.96H70.7671V61.424H60.9424Z" fill="#3B6AFF"/>
<path d="M90.7211 62.064C87.8529 62.064 85.2844 61.36 83.0155 59.952C80.7894 58.544 79.0128 56.624 77.6857 54.192C76.4014 51.76 75.7593 48.9867 75.7593 45.872C75.7593 42.7574 76.4014 39.984 77.6857 37.552C79.0128 35.12 80.7894 33.2 83.0155 31.792C85.2844 30.384 87.8529 29.68 90.7211 29.68C92.8188 29.68 94.7024 30.0854 96.372 30.896C98.0844 31.7067 99.4757 32.8374 100.546 34.288C101.616 35.696 102.215 37.3174 102.344 39.152V52.592C102.215 54.4267 101.616 56.0694 100.546 57.52C99.5185 58.928 98.1486 60.0374 96.4362 60.848C94.7238 61.6587 92.8188 62.064 90.7211 62.064ZM92.7118 53.232C94.8094 53.232 96.5004 52.5494 97.7847 51.184C99.069 49.776 99.7111 48.0054 99.7111 45.872C99.7111 44.4214 99.4114 43.1414 98.8121 42.032C98.2556 40.9227 97.4422 40.0694 96.372 39.472C95.3446 38.832 94.1459 38.512 92.776 38.512C91.4061 38.512 90.186 38.832 89.1158 39.472C88.0884 40.0694 87.2536 40.9227 86.6114 42.032C86.0121 43.1414 85.7125 44.4214 85.7125 45.872C85.7125 47.28 86.0121 48.5387 86.6114 49.648C87.2108 50.7574 88.0456 51.632 89.1158 52.272C90.186 52.912 91.3847 53.232 92.7118 53.232ZM99.3258 61.424V53.04L100.803 45.488L99.3258 37.936V30.32H108.958V61.424H99.3258Z" fill="#3B6AFF"/>
<path d="M115.875 61.424V30.32H125.7V61.424H115.875ZM125.7 44.336L121.591 41.136C122.404 37.5094 123.774 34.6934 125.7 32.688C127.627 30.6827 130.302 29.68 133.727 29.68C135.225 29.68 136.531 29.9147 137.644 30.384C138.8 30.8107 139.806 31.4934 140.662 32.432L134.819 39.792C134.391 39.3227 133.855 38.96 133.213 38.704C132.571 38.448 131.843 38.32 131.03 38.32C129.403 38.32 128.098 38.832 127.113 39.856C126.171 40.8374 125.7 42.3307 125.7 44.336Z" fill="#3B6AFF"/>
<path d="M143.279 61.424V30.32H153.104V61.424H143.279ZM148.224 26.032C146.683 26.032 145.398 25.52 144.371 24.496C143.386 23.4294 142.894 22.1494 142.894 20.656C142.894 19.12 143.386 17.84 144.371 16.816C145.398 15.792 146.683 15.28 148.224 15.28C149.765 15.28 151.028 15.792 152.012 16.816C152.997 17.84 153.489 19.12 153.489 20.656C153.489 22.1494 152.997 23.4294 152.012 24.496C151.028 25.52 149.765 26.032 148.224 26.032Z" fill="#3B6AFF"/>
<path d="M175.049 62.128C171.838 62.128 168.927 61.424 166.316 60.016C163.747 58.5654 161.714 56.6027 160.215 54.128C158.717 51.6534 157.968 48.88 157.968 45.808C157.968 42.736 158.717 39.984 160.215 37.552C161.714 35.12 163.747 33.2 166.316 31.792C168.884 30.3414 171.795 29.616 175.049 29.616C178.302 29.616 181.213 30.32 183.782 31.728C186.35 33.136 188.384 35.0774 189.882 37.552C191.381 39.984 192.13 42.736 192.13 45.808C192.13 48.88 191.381 51.6534 189.882 54.128C188.384 56.6027 186.35 58.5654 183.782 60.016C181.213 61.424 178.302 62.128 175.049 62.128ZM175.049 53.232C176.461 53.232 177.703 52.9334 178.773 52.336C179.843 51.696 180.657 50.8214 181.213 49.712C181.813 48.56 182.112 47.2587 182.112 45.808C182.112 44.3574 181.813 43.0987 181.213 42.032C180.614 40.9227 179.779 40.0694 178.709 39.472C177.682 38.832 176.461 38.512 175.049 38.512C173.679 38.512 172.459 38.832 171.389 39.472C170.318 40.0694 169.484 40.9227 168.884 42.032C168.285 43.1414 167.985 44.4214 167.985 45.872C167.985 47.28 168.285 48.56 168.884 49.712C169.484 50.8214 170.318 51.696 171.389 52.336C172.459 52.9334 173.679 53.232 175.049 53.232Z" fill="#3B6AFF"/>
<path d="M18.7486 56.9368C18.24 57.9379 18.6544 59.1603 19.7097 59.5876C25.4636 61.9173 31.8375 62.4285 37.9309 61.0195C44.0243 59.6104 49.4913 56.3611 53.5727 51.757C54.3213 50.9126 54.1334 49.6378 53.2211 48.9652L48.0298 45.1375C47.1176 44.4649 45.8288 44.6527 45.0475 45.4682C42.4841 48.144 39.1628 50.0358 35.4868 50.8859C31.8108 51.7359 27.976 51.4989 24.4608 50.2287C23.3895 49.8416 22.1511 50.2383 21.6425 51.2394L18.7486 56.9368Z" fill="#3B6AFF"/>
<path d="M4.31783 20.5629C3.26812 20.1135 2.04436 20.5957 1.66746 21.6708C-0.601631 28.1431 -0.560215 35.2232 1.82443 41.6993C4.20907 48.1754 8.77242 53.6007 14.7032 57.0724C15.6883 57.649 16.9343 57.2274 17.443 56.2077L20.3381 50.4049C20.8468 49.3852 20.4224 48.1565 19.4603 47.5424C15.9545 45.3045 13.2584 41.9758 11.8109 38.0448C10.3634 34.1138 10.2589 29.8367 11.4797 25.8691C11.8148 24.7803 11.341 23.5697 10.2913 23.1203L4.31783 20.5629Z" fill="#3B6AFF"/>
<path d="M32.6177 2.18868C32.7167 1.04295 31.8788 0.0252705 30.7428 0.0047656C25.2237 -0.0948531 19.7716 1.36887 15.0107 4.25076C10.2498 7.13264 6.39603 11.302 3.87117 16.2708C3.35146 17.2935 3.84069 18.5222 4.88469 18.9761L10.8257 21.5587C11.8697 22.0126 13.07 21.5167 13.6283 20.515C15.2479 17.609 17.5917 15.1671 20.4408 13.4425C23.2899 11.7178 26.5241 10.7832 29.8196 10.714C30.9556 10.6901 31.9551 9.85441 32.0541 8.70867L32.6177 2.18868Z" fill="#3B6AFF"/>
<path d="M53.7542 13.0775C54.6687 12.4032 54.8659 11.1136 54.1264 10.2527C51.8524 7.60548 49.1219 5.3751 46.0581 3.66936C42.9943 1.96362 39.6554 0.814996 36.1983 0.27149C35.0741 0.0947387 34.0727 0.936616 33.9735 2.06482L33.4089 8.48501C33.3097 9.61322 34.1522 10.5966 35.2688 10.8164C37.2328 11.203 39.1278 11.8956 40.8825 12.8725C42.6372 13.8494 44.2218 15.094 45.5804 16.5573C46.3528 17.3892 47.6358 17.5891 48.5503 16.9147L53.7542 13.0775Z" fill="#3B6AFF"/>
</svg>
