<svg width="261" height="293" viewBox="0 0 261 293" fill="none" xmlns="http://www.w3.org/2000/svg">
<path d="M158.179 13.01C158.66 7.50821 154.588 2.62135 149.066 2.52288C122.238 2.04452 95.7365 9.07331 72.5947 22.9121C49.4528 36.7509 30.7204 56.7719 18.4475 80.6321C15.9214 85.5434 18.2994 91.4436 23.3741 93.6229L52.2522 106.025C57.3268 108.204 63.1612 105.823 65.875 101.013C73.7479 87.058 85.1404 75.3323 98.9894 67.0506C112.838 58.7689 128.559 54.281 144.578 53.9485C150.1 53.8339 154.958 49.8208 155.44 44.319L158.179 13.01Z" fill="url(#paint0_linear_104_135)"/>
<path d="M23.3741 93.6229C18.2994 91.4436 12.3833 93.7818 10.5611 98.9954C-0.408524 130.383 -0.208299 164.717 11.32 196.122C22.8483 227.527 44.9093 253.837 73.5808 270.673C78.3433 273.469 84.3671 271.424 86.8266 266.479L100.822 238.339C103.282 233.394 101.23 227.436 96.5789 224.458C79.6305 213.605 66.5961 197.463 59.5985 178.4C52.6009 159.337 52.0958 138.595 57.9976 119.355C59.6172 114.075 57.3268 108.204 52.2522 106.025L23.3741 93.6229Z" fill="url(#paint1_linear_104_135)"/>
<path d="M86.8266 266.479C84.3671 271.424 86.3711 277.462 91.4748 279.572C119.302 291.079 150.128 293.604 179.597 286.645C209.066 279.685 235.506 263.636 255.245 240.896C258.865 236.725 257.956 230.429 253.544 227.106L228.438 208.201C224.026 204.879 217.793 205.806 214.015 209.834C201.617 223.05 185.555 232.394 167.777 236.593C149.999 240.791 131.453 239.621 114.452 233.347C109.271 231.435 103.282 233.394 100.822 238.339L86.8266 266.479Z" fill="url(#paint2_linear_104_135)"/>
<path d="M254.158 66.7147C258.595 63.4264 259.552 57.1377 255.964 52.9394C244.93 40.0298 231.681 29.153 216.815 20.8348C201.949 12.5165 185.749 6.91511 168.974 4.26464C163.519 3.40269 158.66 7.50821 158.179 13.01L155.44 44.319C154.958 49.8208 159.046 54.6165 164.464 55.6882C173.994 57.5734 183.189 60.9512 191.703 65.7152C200.217 70.4792 207.905 76.5485 214.497 83.6844C218.245 87.7411 224.471 88.716 228.908 85.4277L254.158 66.7147Z" fill="url(#paint3_linear_104_135)"/>
<path d="M52.2522 106.025L23.3741 93.6229M52.2522 106.025C57.3268 108.204 63.1612 105.823 65.875 101.013C73.7479 87.058 85.1404 75.3323 98.9894 67.0506C112.838 58.7689 128.559 54.281 144.578 53.9485C150.1 53.8339 154.958 49.8208 155.44 44.319M52.2522 106.025C57.3268 108.204 59.6172 114.075 57.9976 119.355C52.0958 138.595 52.6009 159.337 59.5985 178.4C66.5961 197.463 79.6305 213.605 96.5789 224.458C101.23 227.436 103.282 233.394 100.822 238.339M23.3741 93.6229C18.2994 91.4436 15.9214 85.5434 18.4475 80.6321C30.7204 56.7719 49.4528 36.7509 72.5947 22.9121C95.7365 9.07331 122.238 2.04452 149.066 2.52288C154.588 2.62135 158.66 7.50821 158.179 13.01M23.3741 93.6229C18.2994 91.4436 12.3833 93.7818 10.5611 98.9954C-0.408524 130.383 -0.208299 164.717 11.32 196.122C22.8483 227.527 44.9093 253.837 73.5808 270.673C78.3433 273.469 84.3671 271.424 86.8266 266.479M155.44 44.319L158.179 13.01M155.44 44.319C154.958 49.8208 159.046 54.6165 164.464 55.6882C173.994 57.5734 183.189 60.9512 191.703 65.7152C200.217 70.4792 207.905 76.5485 214.497 83.6844C218.245 87.7411 224.471 88.716 228.908 85.4277L254.158 66.7147C258.595 63.4264 259.552 57.1377 255.964 52.9394C244.93 40.0298 231.681 29.153 216.815 20.8348C201.949 12.5165 185.749 6.91511 168.974 4.26464C163.519 3.40269 158.66 7.50821 158.179 13.01M100.822 238.339L86.8266 266.479M100.822 238.339C103.282 233.394 109.271 231.435 114.452 233.347C131.453 239.621 149.999 240.791 167.777 236.593C185.555 232.394 201.617 223.05 214.015 209.834C217.793 205.806 224.026 204.879 228.438 208.201L253.544 227.106C257.956 230.429 258.865 236.725 255.245 240.896C235.506 263.636 209.066 279.685 179.597 286.645C150.128 293.604 119.302 291.079 91.4748 279.572C86.3711 277.462 84.3671 271.424 86.8266 266.479" stroke="#13161E" stroke-width="5"/>
<defs>
<linearGradient id="paint0_linear_104_135" x1="263.849" y1="11.0816" x2="206.286" y2="106.27" gradientUnits="userSpaceOnUse">
<stop stop-color="#7B9CFF"/>
<stop offset="1" stop-color="#3B6AFF"/>
</linearGradient>
<linearGradient id="paint1_linear_104_135" x1="263.849" y1="11.0816" x2="206.286" y2="106.27" gradientUnits="userSpaceOnUse">
<stop stop-color="#7B9CFF"/>
<stop offset="1" stop-color="#3B6AFF"/>
</linearGradient>
<linearGradient id="paint2_linear_104_135" x1="263.849" y1="11.0816" x2="206.286" y2="106.27" gradientUnits="userSpaceOnUse">
<stop stop-color="#7B9CFF"/>
<stop offset="1" stop-color="#3B6AFF"/>
</linearGradient>
<linearGradient id="paint3_linear_104_135" x1="263.849" y1="11.0816" x2="206.286" y2="106.27" gradientUnits="userSpaceOnUse">
<stop stop-color="#7B9CFF"/>
<stop offset="1" stop-color="#3B6AFF"/>
</linearGradient>
</defs>
</svg>
