<svg width="800" height="400" viewBox="0 0 800 400" fill="none" xmlns="http://www.w3.org/2000/svg">
<path d="M331.8 292V146.8H362.4V292H331.8Z" fill="url(#paint0_linear_104_124)"/>
<path d="M424.548 294C415.615 294 407.615 291.8 400.548 287.4C393.615 283 388.082 277 383.948 269.4C379.948 261.8 377.948 253.133 377.948 243.4C377.948 233.667 379.948 225 383.948 217.4C388.082 209.8 393.615 203.8 400.548 199.4C407.615 195 415.615 192.8 424.548 192.8C431.082 192.8 436.948 194.067 442.148 196.6C447.482 199.133 451.815 202.667 455.148 207.2C458.482 211.6 460.348 216.667 460.748 222.4V264.4C460.348 270.133 458.482 275.267 455.148 279.8C451.948 284.2 447.682 287.667 442.348 290.2C437.015 292.733 431.082 294 424.548 294ZM430.748 266.4C437.282 266.4 442.548 264.267 446.548 260C450.548 255.6 452.548 250.067 452.548 243.4C452.548 238.867 451.615 234.867 449.748 231.4C448.015 227.933 445.482 225.267 442.148 223.4C438.948 221.4 435.215 220.4 430.948 220.4C426.682 220.4 422.882 221.4 419.548 223.4C416.348 225.267 413.748 227.933 411.748 231.4C409.882 234.867 408.948 238.867 408.948 243.4C408.948 247.8 409.882 251.733 411.748 255.2C413.615 258.667 416.215 261.4 419.548 263.4C422.882 265.4 426.615 266.4 430.748 266.4ZM451.348 292V265.8L455.948 242.2L451.348 218.6V194.8H481.348V292H451.348Z" fill="url(#paint1_linear_104_124)"/>
<path d="M502.894 292V194.8H533.494V292H502.894ZM533.494 238.6L520.694 228.6C523.227 217.267 527.494 208.467 533.494 202.2C539.494 195.933 547.827 192.8 558.494 192.8C563.16 192.8 567.227 193.533 570.694 195C574.294 196.333 577.427 198.467 580.094 201.4L561.894 224.4C560.56 222.933 558.894 221.8 556.894 221C554.894 220.2 552.627 219.8 550.094 219.8C545.027 219.8 540.96 221.4 537.894 224.6C534.96 227.667 533.494 232.333 533.494 238.6Z" fill="url(#paint2_linear_104_124)"/>
<path d="M588.245 292V194.8H618.845V292H588.245ZM603.645 181.4C598.845 181.4 594.845 179.8 591.645 176.6C588.579 173.267 587.045 169.267 587.045 164.6C587.045 159.8 588.579 155.8 591.645 152.6C594.845 149.4 598.845 147.8 603.645 147.8C608.445 147.8 612.379 149.4 615.445 152.6C618.512 155.8 620.045 159.8 620.045 164.6C620.045 169.267 618.512 173.267 615.445 176.6C612.379 179.8 608.445 181.4 603.645 181.4Z" fill="url(#paint3_linear_104_124)"/>
<path d="M687.194 294.2C677.194 294.2 668.127 292 659.994 287.6C651.994 283.067 645.66 276.933 640.994 269.2C636.327 261.467 633.994 252.8 633.994 243.2C633.994 233.6 636.327 225 640.994 217.4C645.66 209.8 651.994 203.8 659.994 199.4C667.994 194.867 677.06 192.6 687.194 192.6C697.327 192.6 706.394 194.8 714.394 199.2C722.394 203.6 728.727 209.667 733.394 217.4C738.06 225 740.394 233.6 740.394 243.2C740.394 252.8 738.06 261.467 733.394 269.2C728.727 276.933 722.394 283.067 714.394 287.6C706.394 292 697.327 294.2 687.194 294.2ZM687.194 266.4C691.594 266.4 695.46 265.467 698.794 263.6C702.127 261.6 704.66 258.867 706.394 255.4C708.26 251.8 709.194 247.733 709.194 243.2C709.194 238.667 708.26 234.733 706.394 231.4C704.527 227.933 701.927 225.267 698.594 223.4C695.394 221.4 691.594 220.4 687.194 220.4C682.927 220.4 679.127 221.4 675.794 223.4C672.46 225.267 669.86 227.933 667.994 231.4C666.127 234.867 665.194 238.867 665.194 243.4C665.194 247.8 666.127 251.8 667.994 255.4C669.86 258.867 672.46 261.6 675.794 263.6C679.127 265.467 682.927 266.4 687.194 266.4Z" fill="url(#paint4_linear_104_124)"/>
<path d="M142.075 320.852C139.663 325.703 141.628 331.626 146.634 333.697C173.927 344.985 204.162 347.462 233.066 340.635C261.97 333.807 287.902 318.062 307.262 295.753C310.813 291.661 309.922 285.484 305.595 282.225L280.97 263.678C276.643 260.419 270.529 261.329 266.823 265.28C254.664 278.246 238.909 287.413 221.472 291.532C204.035 295.651 185.845 294.502 169.171 288.348C164.089 286.472 158.214 288.394 155.802 293.245L142.075 320.852Z" fill="url(#paint5_linear_104_124)"/>
<path d="M76.2161 149.27C71.2388 147.132 65.4361 149.426 63.6489 154.541C52.8897 185.333 53.0861 219.017 64.3932 249.827C75.7004 280.637 97.3382 306.447 125.46 322.964C130.131 325.708 136.039 323.702 138.451 318.85L152.179 291.244C154.591 286.392 152.579 280.547 148.017 277.625C131.393 266.978 118.609 251.142 111.746 232.44C104.882 213.739 104.387 193.39 110.175 174.515C111.764 169.335 109.518 163.575 104.54 161.437L76.2161 149.27Z" fill="url(#paint6_linear_104_124)"/>
<path d="M209.516 66.3108C209.988 60.9133 205.994 56.119 200.578 56.0225C174.265 55.5532 148.272 62.4487 125.574 76.0252C102.876 89.6016 84.5026 109.243 72.4651 132.651C69.9874 137.469 72.3198 143.258 77.2972 145.396L105.621 157.562C110.599 159.7 116.321 157.364 118.983 152.645C126.705 138.955 137.879 127.452 151.462 119.327C165.045 111.202 180.464 106.8 196.176 106.473C201.592 106.361 206.357 102.424 206.829 97.0263L209.516 66.3108Z" fill="url(#paint7_linear_104_124)"/>
<path d="M307.263 118.728C311.615 115.502 312.553 109.332 309.034 105.213C298.212 92.5486 285.217 81.878 270.636 73.7174C256.055 65.5569 240.165 60.0616 223.713 57.4614C218.362 56.6158 213.597 60.6435 213.124 66.041L210.438 96.7565C209.966 102.154 213.975 106.859 219.289 107.91C228.636 109.76 237.655 113.073 246.005 117.747C254.356 122.421 261.897 128.375 268.363 135.376C272.038 139.356 278.145 140.312 282.497 137.086L307.263 118.728Z" fill="url(#paint8_linear_104_124)"/>
<defs>
<linearGradient id="paint0_linear_104_124" x1="745" y1="91.9999" x2="321" y2="344" gradientUnits="userSpaceOnUse">
<stop stop-color="#7B9CFF"/>
<stop offset="1" stop-color="#3B6AFF"/>
</linearGradient>
<linearGradient id="paint1_linear_104_124" x1="745" y1="91.9999" x2="321" y2="344" gradientUnits="userSpaceOnUse">
<stop stop-color="#7B9CFF"/>
<stop offset="1" stop-color="#3B6AFF"/>
</linearGradient>
<linearGradient id="paint2_linear_104_124" x1="745" y1="91.9999" x2="321" y2="344" gradientUnits="userSpaceOnUse">
<stop stop-color="#7B9CFF"/>
<stop offset="1" stop-color="#3B6AFF"/>
</linearGradient>
<linearGradient id="paint3_linear_104_124" x1="745" y1="91.9999" x2="321" y2="344" gradientUnits="userSpaceOnUse">
<stop stop-color="#7B9CFF"/>
<stop offset="1" stop-color="#3B6AFF"/>
</linearGradient>
<linearGradient id="paint4_linear_104_124" x1="745" y1="91.9999" x2="321" y2="344" gradientUnits="userSpaceOnUse">
<stop stop-color="#7B9CFF"/>
<stop offset="1" stop-color="#3B6AFF"/>
</linearGradient>
<linearGradient id="paint5_linear_104_124" x1="315.701" y1="70.2952" x2="259.223" y2="163.668" gradientUnits="userSpaceOnUse">
<stop stop-color="#7B9CFF"/>
<stop offset="1" stop-color="#3B6AFF"/>
</linearGradient>
<linearGradient id="paint6_linear_104_124" x1="312.078" y1="68.2937" x2="255.6" y2="161.666" gradientUnits="userSpaceOnUse">
<stop stop-color="#7B9CFF"/>
<stop offset="1" stop-color="#3B6AFF"/>
</linearGradient>
<linearGradient id="paint7_linear_104_124" x1="313.159" y1="64.4189" x2="256.681" y2="157.791" gradientUnits="userSpaceOnUse">
<stop stop-color="#7B9CFF"/>
<stop offset="1" stop-color="#3B6AFF"/>
</linearGradient>
<linearGradient id="paint8_linear_104_124" x1="316.768" y1="64.1491" x2="260.29" y2="157.521" gradientUnits="userSpaceOnUse">
<stop stop-color="#7B9CFF"/>
<stop offset="1" stop-color="#3B6AFF"/>
</linearGradient>
</defs>
</svg>
