<svg width="400" height="400" viewBox="0 0 400 400" fill="none" xmlns="http://www.w3.org/2000/svg">
<path d="M126.626 365.882C123.313 372.544 126.012 380.678 132.887 383.521C170.367 399.024 211.887 402.425 251.579 393.049C291.272 383.673 326.884 362.052 353.47 331.415C358.346 325.796 357.122 317.314 351.18 312.838L317.364 287.368C311.422 282.892 303.026 284.142 297.937 289.568C281.239 307.373 259.604 319.962 235.658 325.619C211.713 331.275 186.733 329.698 163.835 321.246C156.857 318.67 148.79 321.309 145.477 327.971L126.626 365.882Z" fill="#D9D9D9"/>
<path d="M36.1852 130.258C29.3501 127.322 21.3816 130.472 18.9273 137.495C4.15218 179.781 4.42187 226.037 19.9494 268.347C35.477 310.657 65.1913 346.101 103.809 368.783C110.224 372.55 118.337 369.796 121.65 363.134L140.501 325.223C143.814 318.561 141.05 310.533 134.786 306.521C111.958 291.9 94.4015 270.153 84.9763 244.471C75.5511 218.789 74.8708 190.846 82.82 164.924C85.0015 157.811 81.9166 149.902 75.0814 146.966L36.1852 130.258Z" fill="#D9D9D9"/>
<path d="M219.24 16.3331C219.888 8.92088 214.403 2.33719 206.965 2.20454C170.831 1.56007 135.136 11.0294 103.966 29.6733C72.7955 48.3173 47.5647 75.2901 31.0342 107.435C27.6317 114.052 30.8347 122.001 37.6698 124.937L76.5661 141.645C83.4012 144.581 91.2596 141.373 94.9148 134.892C105.519 116.092 120.864 100.295 139.517 89.1377C158.17 77.9805 179.345 71.9343 200.921 71.4863C208.358 71.3318 214.902 65.9253 215.55 58.5131L219.24 16.3331Z" fill="#D9D9D9"/>
<path d="M353.471 88.3147C359.447 83.8846 360.736 75.4123 355.903 69.7563C341.041 52.3641 323.197 37.7107 303.173 26.5042C283.15 15.2977 261.329 7.75132 238.736 4.18055C231.388 3.0193 224.843 8.55036 224.195 15.9625L220.506 58.1426C219.857 65.5548 225.363 72.0157 232.66 73.4596C245.497 75.9993 257.881 80.55 269.349 86.9681C280.816 93.3862 291.173 101.563 300.051 111.177C305.099 116.642 313.484 117.955 319.461 113.525L353.471 88.3147Z" fill="#D9D9D9"/>
</svg>
