<svg width="599" height="200" viewBox="0 0 599 200" fill="none" xmlns="http://www.w3.org/2000/svg">
<path d="M189.81 191.95V46.75H220.41V191.95H189.81Z" fill="white"/>
<path d="M282.558 193.95C273.625 193.95 265.625 191.75 258.558 187.35C251.625 182.95 246.092 176.95 241.958 169.35C237.958 161.75 235.958 153.083 235.958 143.35C235.958 133.617 237.958 124.95 241.958 117.35C246.092 109.75 251.625 103.75 258.558 99.35C265.625 94.95 273.625 92.75 282.558 92.75C289.092 92.75 294.958 94.0167 300.159 96.55C305.492 99.0833 309.825 102.617 313.159 107.15C316.492 111.55 318.359 116.617 318.758 122.35V164.35C318.359 170.083 316.492 175.217 313.159 179.75C309.958 184.15 305.692 187.617 300.358 190.15C295.025 192.683 289.092 193.95 282.558 193.95ZM288.758 166.35C295.292 166.35 300.559 164.217 304.559 159.95C308.559 155.55 310.559 150.017 310.559 143.35C310.559 138.817 309.625 134.817 307.758 131.35C306.025 127.883 303.492 125.217 300.159 123.35C296.958 121.35 293.225 120.35 288.958 120.35C284.692 120.35 280.892 121.35 277.558 123.35C274.358 125.217 271.758 127.883 269.758 131.35C267.892 134.817 266.958 138.817 266.958 143.35C266.958 147.75 267.892 151.683 269.758 155.15C271.625 158.617 274.225 161.35 277.558 163.35C280.892 165.35 284.625 166.35 288.758 166.35ZM309.359 191.95V165.75L313.959 142.15L309.359 118.55V94.75H339.358V191.95H309.359Z" fill="white"/>
<path d="M360.904 191.95V94.75H391.504V191.95H360.904ZM391.504 138.55L378.704 128.55C381.237 117.217 385.504 108.417 391.504 102.15C397.504 95.8833 405.837 92.75 416.504 92.75C421.17 92.75 425.237 93.4833 428.704 94.95C432.304 96.2833 435.437 98.4167 438.104 101.35L419.904 124.35C418.57 122.883 416.904 121.75 414.904 120.95C412.904 120.15 410.637 119.75 408.104 119.75C403.037 119.75 398.97 121.35 395.904 124.55C392.97 127.617 391.504 132.283 391.504 138.55Z" fill="white"/>
<path d="M446.255 191.95V94.75H476.855V191.95H446.255ZM461.655 81.35C456.855 81.35 452.855 79.75 449.655 76.55C446.589 73.2167 445.055 69.2167 445.055 64.55C445.055 59.75 446.589 55.75 449.655 52.55C452.855 49.35 456.855 47.75 461.655 47.75C466.455 47.75 470.389 49.35 473.455 52.55C476.522 55.75 478.055 59.75 478.055 64.55C478.055 69.2167 476.522 73.2167 473.455 76.55C470.389 79.75 466.455 81.35 461.655 81.35Z" fill="white"/>
<path d="M545.204 194.15C535.204 194.15 526.137 191.95 518.004 187.55C510.004 183.017 503.67 176.883 499.004 169.15C494.337 161.417 492.004 152.75 492.004 143.15C492.004 133.55 494.337 124.95 499.004 117.35C503.67 109.75 510.004 103.75 518.004 99.35C526.004 94.8167 535.07 92.55 545.204 92.55C555.337 92.55 564.404 94.75 572.404 99.15C580.404 103.55 586.737 109.617 591.404 117.35C596.07 124.95 598.404 133.55 598.404 143.15C598.404 152.75 596.07 161.417 591.404 169.15C586.737 176.883 580.404 183.017 572.404 187.55C564.404 191.95 555.337 194.15 545.204 194.15ZM545.204 166.35C549.604 166.35 553.47 165.417 556.804 163.55C560.137 161.55 562.67 158.817 564.404 155.35C566.27 151.75 567.204 147.683 567.204 143.15C567.204 138.617 566.27 134.683 564.404 131.35C562.537 127.883 559.937 125.217 556.604 123.35C553.404 121.35 549.604 120.35 545.204 120.35C540.937 120.35 537.137 121.35 533.804 123.35C530.47 125.217 527.87 127.883 526.004 131.35C524.137 134.817 523.204 138.817 523.204 143.35C523.204 147.75 524.137 151.75 526.004 155.35C527.87 158.817 530.47 161.55 533.804 163.55C537.137 165.417 540.937 166.35 545.204 166.35Z" fill="white"/>
<path d="M58.3942 177.927C56.8103 181.056 58.1009 184.876 61.3877 186.211C79.3085 193.492 99.1607 195.089 118.139 190.686C137.118 186.282 154.145 176.128 166.857 161.741C169.188 159.102 168.603 155.118 165.762 153.016L149.593 141.055C146.752 138.953 142.738 139.54 140.304 142.088C132.32 150.45 121.976 156.362 110.527 159.018C99.0775 161.675 87.1337 160.934 76.1854 156.965C72.8486 155.755 68.9915 156.995 67.4076 160.123L58.3942 177.927Z" fill="white"/>
<path d="M13.4482 64.2591C10.1788 62.8547 6.36734 64.3615 5.19343 67.7212C-1.87383 87.9474 -1.74484 110.073 5.68233 130.31C13.1095 150.548 27.3224 167.502 45.7942 178.351C48.8625 180.153 52.7433 178.836 54.3278 175.649L63.3447 157.515C64.9292 154.329 63.6073 150.489 60.6108 148.57C49.6917 141.577 41.2943 131.174 36.786 118.89C32.2777 106.606 31.9523 93.2397 35.7546 80.841C36.7981 77.4385 35.3225 73.6553 32.0531 72.2509L13.4482 64.2591Z" fill="white"/>
<path d="M101.59 6.83964C101.899 3.2592 99.2892 0.0789703 95.751 0.0148925C78.5612 -0.296416 61.5802 4.27773 46.7519 13.2836C31.9237 22.2895 19.9208 35.3186 12.0569 50.8462C10.4383 54.0423 11.962 57.882 15.2136 59.3002L33.7174 67.371C36.969 68.7892 40.7074 67.2396 42.4462 64.1093C47.4908 55.028 54.7906 47.3972 63.6644 42.0077C72.5383 36.6182 82.6114 33.6976 92.8756 33.4812C96.4136 33.4066 99.5267 30.795 99.8352 27.2146L101.59 6.83964Z" fill="white"/>
<path d="M167.422 40.8672C170.27 38.76 170.884 34.7301 168.581 32.0398C161.498 23.7672 152.994 16.7972 143.452 11.4668C133.909 6.13639 123.51 2.54693 112.743 0.848476C109.241 0.296127 106.122 2.92699 105.813 6.45263L104.055 26.5157C103.746 30.0414 106.37 33.1145 109.847 33.8013C115.965 35.0094 121.867 37.1739 127.332 40.2267C132.797 43.2795 137.732 47.1688 141.964 51.7416C144.369 54.3412 148.366 54.9659 151.214 52.8587L167.422 40.8672Z" fill="white"/>
</svg>
