<svg width="800" height="400" viewBox="0 0 800 400" fill="none" xmlns="http://www.w3.org/2000/svg">
<path d="M211.696 66.3202C212.178 60.8183 208.105 55.9315 202.583 55.833C175.756 55.3546 149.254 62.3834 126.112 76.2222C102.97 90.061 84.238 110.082 71.9651 133.942C69.4389 138.853 71.817 144.754 76.8916 146.933L105.77 159.335C110.844 161.514 116.679 159.133 119.393 154.323C127.265 140.368 138.658 128.642 152.507 120.361C166.356 112.079 182.077 107.591 198.096 107.259C203.617 107.144 208.476 103.131 208.957 97.6291L211.696 66.3202Z" fill="url(#paint0_linear_104_124)"/>
<path d="M76.8916 146.933C71.817 144.754 65.9008 147.092 64.0787 152.306C53.1091 183.693 53.3093 218.027 64.8376 249.432C76.3659 280.837 98.4269 307.147 127.098 323.983C131.861 326.779 137.885 324.735 140.344 319.79L154.34 291.649C156.799 286.704 154.748 280.746 150.097 277.768C133.148 266.915 120.114 250.773 113.116 231.71C106.118 212.647 105.613 191.906 111.515 172.665C113.135 167.385 110.844 161.514 105.77 159.335L76.8916 146.933Z" fill="url(#paint1_linear_104_124)"/>
<path d="M140.344 319.79C137.885 324.735 139.889 330.772 144.992 332.882C172.819 344.389 203.645 346.914 233.115 339.955C262.584 332.995 289.023 316.946 308.762 294.206C312.383 290.035 311.474 283.739 307.062 280.417L281.956 261.511C277.544 258.189 271.311 259.116 267.532 263.144C255.135 276.36 239.072 285.704 221.294 289.903C203.516 294.102 184.97 292.931 167.97 286.657C162.789 284.745 156.799 286.704 154.34 291.649L140.344 319.79Z" fill="url(#paint2_linear_104_124)"/>
<path d="M307.676 120.025C312.113 116.736 313.07 110.448 309.482 106.25C298.448 93.3399 285.199 82.4632 270.333 74.1449C255.467 65.8267 239.266 60.2252 222.492 57.5748C217.037 56.7128 212.178 60.8183 211.696 66.3202L208.957 97.6291C208.476 103.131 212.563 107.927 217.981 108.998C227.511 110.884 236.706 114.261 245.22 119.025C253.734 123.789 261.423 129.859 268.015 136.994C271.763 141.051 277.988 142.026 282.425 138.738L307.676 120.025Z" fill="url(#paint3_linear_104_124)"/>
<path d="M105.77 159.335L76.8916 146.933M105.77 159.335C110.844 161.514 116.679 159.133 119.393 154.323C127.265 140.368 138.658 128.642 152.507 120.361C166.356 112.079 182.077 107.591 198.096 107.259C203.617 107.144 208.476 103.131 208.957 97.6291M105.77 159.335C110.844 161.514 113.135 167.385 111.515 172.665C105.613 191.906 106.118 212.647 113.116 231.71C120.114 250.773 133.148 266.915 150.097 277.768C154.748 280.746 156.799 286.704 154.34 291.649M76.8916 146.933C71.817 144.754 69.4389 138.853 71.9651 133.942C84.238 110.082 102.97 90.061 126.112 76.2222C149.254 62.3834 175.756 55.3546 202.583 55.833C208.105 55.9315 212.178 60.8183 211.696 66.3202M76.8916 146.933C71.817 144.754 65.9008 147.092 64.0787 152.306C53.1091 183.693 53.3093 218.027 64.8376 249.432C76.3659 280.837 98.4269 307.147 127.098 323.983C131.861 326.779 137.885 324.735 140.344 319.79M208.957 97.6291L211.696 66.3202M208.957 97.6291C208.476 103.131 212.563 107.927 217.981 108.998C227.511 110.884 236.706 114.261 245.22 119.025C253.734 123.789 261.423 129.859 268.015 136.994C271.763 141.051 277.988 142.026 282.425 138.738L307.676 120.025C312.113 116.736 313.07 110.448 309.482 106.25C298.448 93.3399 285.199 82.4632 270.333 74.1449C255.467 65.8267 239.266 60.2252 222.492 57.5748C217.037 56.7128 212.178 60.8183 211.696 66.3202M154.34 291.649L140.344 319.79M154.34 291.649C156.799 286.704 162.789 284.745 167.97 286.657C184.97 292.931 203.516 294.102 221.294 289.903C239.072 285.704 255.135 276.36 267.532 263.144C271.311 259.116 277.544 258.189 281.956 261.511L307.062 280.417C311.474 283.739 312.383 290.035 308.762 294.206C289.023 316.946 262.584 332.995 233.115 339.955C203.645 346.914 172.819 344.389 144.992 332.882C139.889 330.772 137.885 324.735 140.344 319.79" stroke="#13161E" stroke-width="5"/>
<path d="M331.8 292V146.8H362.4V292H331.8ZM424.548 294C415.615 294 407.615 291.8 400.548 287.4C393.615 283 388.082 277 383.948 269.4C379.948 261.8 377.948 253.133 377.948 243.4C377.948 233.667 379.948 225 383.948 217.4C388.082 209.8 393.615 203.8 400.548 199.4C407.615 195 415.615 192.8 424.548 192.8C431.082 192.8 436.948 194.067 442.148 196.6C447.482 199.133 451.815 202.667 455.148 207.2C458.482 211.6 460.348 216.667 460.748 222.4V264.4C460.348 270.133 458.482 275.267 455.148 279.8C451.948 284.2 447.682 287.667 442.348 290.2C437.015 292.733 431.082 294 424.548 294ZM430.748 266.4C437.282 266.4 442.548 264.267 446.548 260C450.548 255.6 452.548 250.067 452.548 243.4C452.548 238.867 451.615 234.867 449.748 231.4C448.015 227.933 445.482 225.267 442.148 223.4C438.948 221.4 435.215 220.4 430.948 220.4C426.682 220.4 422.882 221.4 419.548 223.4C416.348 225.267 413.748 227.933 411.748 231.4C409.882 234.867 408.948 238.867 408.948 243.4C408.948 247.8 409.882 251.733 411.748 255.2C413.615 258.667 416.215 261.4 419.548 263.4C422.882 265.4 426.615 266.4 430.748 266.4ZM451.348 292V265.8L455.948 242.2L451.348 218.6V194.8H481.348V292H451.348ZM502.894 292V194.8H533.494V292H502.894ZM533.494 238.6L520.694 228.6C523.227 217.267 527.494 208.467 533.494 202.2C539.494 195.933 547.827 192.8 558.494 192.8C563.16 192.8 567.227 193.533 570.694 195C574.294 196.333 577.427 198.467 580.094 201.4L561.894 224.4C560.56 222.933 558.894 221.8 556.894 221C554.894 220.2 552.627 219.8 550.094 219.8C545.027 219.8 540.96 221.4 537.894 224.6C534.96 227.667 533.494 232.333 533.494 238.6ZM588.245 292V194.8H618.845V292H588.245ZM603.645 181.4C598.845 181.4 594.845 179.8 591.645 176.6C588.579 173.267 587.045 169.267 587.045 164.6C587.045 159.8 588.579 155.8 591.645 152.6C594.845 149.4 598.845 147.8 603.645 147.8C608.445 147.8 612.379 149.4 615.445 152.6C618.512 155.8 620.045 159.8 620.045 164.6C620.045 169.267 618.512 173.267 615.445 176.6C612.379 179.8 608.445 181.4 603.645 181.4ZM687.194 294.2C677.194 294.2 668.127 292 659.994 287.6C651.994 283.067 645.66 276.933 640.994 269.2C636.327 261.467 633.994 252.8 633.994 243.2C633.994 233.6 636.327 225 640.994 217.4C645.66 209.8 651.994 203.8 659.994 199.4C667.994 194.867 677.06 192.6 687.194 192.6C697.327 192.6 706.394 194.8 714.394 199.2C722.394 203.6 728.727 209.667 733.394 217.4C738.06 225 740.394 233.6 740.394 243.2C740.394 252.8 738.06 261.467 733.394 269.2C728.727 276.933 722.394 283.067 714.394 287.6C706.394 292 697.327 294.2 687.194 294.2ZM687.194 266.4C691.594 266.4 695.46 265.467 698.794 263.6C702.127 261.6 704.66 258.867 706.394 255.4C708.26 251.8 709.194 247.733 709.194 243.2C709.194 238.667 708.26 234.733 706.394 231.4C704.527 227.933 701.927 225.267 698.594 223.4C695.394 221.4 691.594 220.4 687.194 220.4C682.927 220.4 679.127 221.4 675.794 223.4C672.46 225.267 669.86 227.933 667.994 231.4C666.127 234.867 665.194 238.867 665.194 243.4C665.194 247.8 666.127 251.8 667.994 255.4C669.86 258.867 672.46 261.6 675.794 263.6C679.127 265.467 682.927 266.4 687.194 266.4Z" fill="url(#paint4_linear_104_124)"/>
<defs>
<linearGradient id="paint0_linear_104_124" x1="317.366" y1="64.3917" x2="259.803" y2="159.58" gradientUnits="userSpaceOnUse">
<stop stop-color="#7B9CFF"/>
<stop offset="1" stop-color="#3B6AFF"/>
</linearGradient>
<linearGradient id="paint1_linear_104_124" x1="317.366" y1="64.3917" x2="259.803" y2="159.58" gradientUnits="userSpaceOnUse">
<stop stop-color="#7B9CFF"/>
<stop offset="1" stop-color="#3B6AFF"/>
</linearGradient>
<linearGradient id="paint2_linear_104_124" x1="317.366" y1="64.3917" x2="259.803" y2="159.58" gradientUnits="userSpaceOnUse">
<stop stop-color="#7B9CFF"/>
<stop offset="1" stop-color="#3B6AFF"/>
</linearGradient>
<linearGradient id="paint3_linear_104_124" x1="317.366" y1="64.3917" x2="259.803" y2="159.58" gradientUnits="userSpaceOnUse">
<stop stop-color="#7B9CFF"/>
<stop offset="1" stop-color="#3B6AFF"/>
</linearGradient>
<linearGradient id="paint4_linear_104_124" x1="745" y1="92" x2="321" y2="344" gradientUnits="userSpaceOnUse">
<stop stop-color="#7B9CFF"/>
<stop offset="1" stop-color="#3B6AFF"/>
</linearGradient>
</defs>
</svg>
